<?xml version='1.0' encoding='utf-8'?>
<svg xmlns="http://www.w3.org/2000/svg" version="1.1" id="Contours" x="0px" y="0px" width="339.000000" height="577.000000" viewBox="0.000000 0.000000 339.000000 577.000000" stroke="black" fill="none" stroke-linecap="round" stroke-linejoin="round"> <desc> </desc> <path d="M339.0 577.0 C226.0 577.0 113.0 577.0 0.0 577.0 C0.0 384.7 0.0 192.3 0.0 0.0 C113.0 0.0 226.0 0.0 339.0 0.0 C339.0 192.3 339.0 384.7 339.0 577.0 M160.2 112.0 C193.8 119.2 228.8 134.7 244.3 165.3 C260.3 196.8 250.9 235.9 232.5 266.0 C214.0 296.1 187.4 320.2 165.5 347.9 C146.2 372.4 130.3 400.2 123.6 430.7 C116.9 461.1 120.1 494.5 136.5 521.0 C152.8 547.6 183.3 566.1 214.4 564.1 C245.5 562.1 274.9 537.4 278.3 506.4 C279.6 494.9 276.0 481.2 265.4 476.8 C279.5 498.9 271.1 531.2 249.7 546.5 C228.4 561.7 197.7 560.5 175.4 546.6 C153.1 532.7 139.0 507.9 134.2 482.1 C131.5 467.3 131.6 452.0 134.5 437.2 C141.2 403.7 161.8 374.6 183.8 348.5 C205.8 322.3 230.0 297.5 246.3 267.4 C262.5 237.3 269.9 200.1 256.1 168.8 C246.9 148.1 229.1 131.9 208.7 121.7 C188.4 111.6 165.6 107.2 143.0 105.7 C147.8 109.5 154.2 110.7 160.2 112.0 M106.2 315.6 C102.1 310.5 98.0 305.3 93.8 300.2 C88.3 293.3 82.7 286.4 79.3 278.3 C71.2 259.0 76.6 236.7 85.6 217.9 C94.7 199.1 107.2 181.9 114.2 162.3 C121.3 142.7 121.7 118.8 108.2 102.9 C98.1 91.2 81.6 86.0 66.3 88.4 C51.1 90.9 37.5 100.4 28.6 113.0 C24.4 119.1 21.0 126.3 21.7 133.6 C22.4 141.0 28.2 148.2 35.6 148.5 C31.5 144.0 27.3 138.9 27.0 132.9 C26.7 127.2 30.1 122.0 33.8 117.8 C42.1 108.2 53.6 100.9 66.2 99.4 C78.9 97.9 92.5 102.9 99.8 113.3 C109.8 127.8 105.7 147.6 98.7 163.8 C86.2 192.5 65.4 219.3 65.0 250.7 C64.6 277.8 81.5 304.4 106.2 315.6 M138.5 85.3 C154.5 74.6 176.2 77.4 193.6 85.5 C216.8 96.3 235.6 115.3 248.7 137.3 C251.3 137.0 251.2 133.2 250.3 130.7 C242.1 109.1 228.2 88.9 208.2 77.4 C188.2 65.8 161.6 64.2 142.4 77.2 C139.7 79.0 136.8 82.5 138.5 85.3 M247.5 98.5 C248.9 96.3 248.7 93.5 248.4 90.9 C245.1 68.6 230.3 48.3 210.0 38.6 C189.7 28.8 164.6 29.8 145.2 41.1 C143.2 42.3 141.0 44.6 142.3 46.5 C161.6 40.3 183.1 41.5 201.6 49.8 C220.0 58.1 235.2 73.4 243.4 91.9 C244.4 94.3 245.4 96.9 247.5 98.5 M166.9 215.2 C173.0 225.8 185.7 231.1 197.9 231.3 C199.8 231.4 201.7 231.3 203.5 230.6 C208.3 228.7 210.1 222.7 210.1 217.5 C210.1 210.7 208.0 204.0 204.1 198.4 C197.5 189.1 186.8 183.7 176.6 178.8 C171.5 176.3 166.4 173.9 161.3 171.4 C159.6 170.6 157.0 170.2 156.4 171.9 C162.6 177.7 170.3 181.5 177.9 185.4 C185.4 189.3 192.9 193.5 198.5 199.9 C204.0 206.4 207.1 215.5 204.3 223.5 C204.0 224.4 203.6 225.3 202.8 225.9 C201.9 226.7 200.5 226.8 199.2 226.8 C183.8 227.0 169.2 214.5 167.0 199.1 C166.2 193.0 166.9 185.9 162.5 181.4 C160.2 185.2 160.8 190.1 161.3 194.6 C162.3 201.7 163.3 209.0 166.9 215.2 M151.4 145.8 C160.6 157.1 175.6 161.2 188.2 168.5 C195.6 172.7 202.3 178.2 208.0 184.6 C211.2 188.2 214.1 192.2 215.7 196.8 C219.0 205.9 216.8 216.0 214.6 225.4 C215.5 226.3 216.9 225.2 217.6 224.2 C225.2 213.2 223.3 197.7 216.1 186.4 C208.9 175.2 197.3 167.5 185.6 161.2 C173.8 154.9 161.4 149.6 150.8 141.6 C149.5 142.6 150.4 144.6 151.4 145.8 " fill="#000000" stroke="none"/> </svg>