<svg width="23" height="23" fill="none" xmlns="http://www.w3.org/2000/svg"><path d="M7.668 11.5a3.833 3.833 0 1 1 7.666 0 3.833 3.833 0 0 1-7.666 0zm-2.073 0a5.905 5.905 0 1 0 11.81 0 5.905 5.905 0 0 0-11.81 0zM16.26 5.36a1.38 1.38 0 1 0 2.76 0 1.38 1.38 0 0 0-2.76 0zm-9.406 15.5c-1.121-.05-1.73-.237-2.136-.395a3.577 3.577 0 0 1-1.323-.86 3.554 3.554 0 0 1-.86-1.322c-.158-.405-.345-1.014-.396-2.136-.055-1.212-.067-1.576-.067-4.647s.013-3.434.067-4.647c.051-1.122.24-1.73.396-2.136.21-.537.458-.92.86-1.323a3.55 3.55 0 0 1 1.323-.86c.405-.158 1.015-.345 2.136-.396 1.212-.055 1.576-.067 4.647-.067 3.07 0 3.434.013 4.647.067 1.121.051 1.73.24 2.136.396.537.208.92.458 1.323.86.402.402.65.786.86 1.323.158.405.344 1.014.396 2.136.055 1.213.066 1.576.066 4.647 0 3.07-.01 3.434-.066 4.647-.052 1.122-.24 1.73-.396 2.136-.21.537-.458.92-.86 1.322a3.57 3.57 0 0 1-1.323.86c-.405.158-1.015.345-2.136.396-1.212.055-1.576.067-4.647.067-3.07 0-3.435-.012-4.647-.067zM6.759.07C5.535.125 4.7.32 3.968.604A5.643 5.643 0 0 0 1.93 1.93 5.627 5.627 0 0 0 .604 3.967C.32 4.698.125 5.534.07 6.76.013 7.985 0 8.377 0 11.5c0 3.123.013 3.515.07 4.741.055 1.224.25 2.06.534 2.792A5.623 5.623 0 0 0 1.93 21.07a5.64 5.64 0 0 0 2.038 1.326c.732.284 1.567.479 2.791.534 1.227.056 1.618.07 4.742.07 3.123 0 3.515-.013 4.74-.07 1.225-.055 2.061-.25 2.792-.534a5.657 5.657 0 0 0 2.038-1.326 5.648 5.648 0 0 0 1.326-2.037c.284-.732.48-1.568.534-2.792.056-1.227.069-1.618.069-4.741 0-3.123-.013-3.515-.069-4.741-.056-1.225-.25-2.06-.534-2.792a5.656 5.656 0 0 0-1.326-2.037A5.641 5.641 0 0 0 19.034.604C18.302.32 17.466.124 16.243.07 15.017.014 14.625 0 11.5 0 8.377 0 7.986.013 6.76.07" fill="#fff"/></svg>