<svg width="23" height="23" fill="none" xmlns="http://www.w3.org/2000/svg"><path fill-rule="evenodd" clip-rule="evenodd" d="M1.7 0C.76 0 0 .738 0 1.648v19.705C0 22.263.761 23 1.7 23h19.6c.939 0 1.7-.738 1.7-1.647V1.648C23 .738 22.239 0 21.3 0H1.7zm5.16 8.879v10.12H3.214V8.88h3.644zm.24-3.13c0 .971-.792 1.748-2.062 1.748h-.024C3.79 7.497 3 6.72 3 5.75 3 4.755 3.815 4 5.062 4c1.246 0 2.013.755 2.037 1.749zm5.42 13.25H8.876c0-.059.048-9.174 0-10.12h3.644v1.433c.485-.69 1.352-1.67 3.285-1.67 2.397 0 4.195 1.446 4.195 4.555V19h-3.644v-5.414c0-1.36-.528-2.289-1.846-2.289-1.007 0-1.607.626-1.87 1.23-.096.216-.12.52-.12.821V19z" fill="#fff"/></svg>