<svg width="74" height="50" viewBox="0 0 74 50" fill="none" xmlns="http://www.w3.org/2000/svg"><path d="M73.5439 44.6797H1.16406V49.8259H67.4018L73.5439 44.6797Z" fill="#32313B"></path><path d="M67.3917 1.03906H37.1918L31.3906 5.49903V17.0937H44.2796V33.2471H37.1918L31.3906 37.7069V49.3014H61.5905L67.3917 44.8416V1.03906Z" fill="#49B889" stroke="#32313B" stroke-width="0.7125" stroke-miterlimit="10" stroke-linejoin="round"></path><path d="M40.407 12.7976H27.8917V1.20312H6.91069L1.10938 5.66295V49.4656H22.0904L27.8917 45.0058V37.8709H34.6059L40.407 33.4111V12.7976Z" fill="#8173E6" stroke="#32313B" stroke-width="0.7125" stroke-miterlimit="10" stroke-linejoin="round"></path><path d="M34.6059 17.2587H22.0904V5.66406H1.10938V49.4667H22.0904V37.8721H34.6059V17.2587Z" fill="#B0A6F9" stroke="#32313B" stroke-width="0.7125" stroke-miterlimit="10" stroke-linejoin="round"></path><path d="M22.0898 5.66295L27.8912 1.20312" stroke="#32313B" stroke-width="0.7125" stroke-miterlimit="10" stroke-linejoin="round"></path><path d="M34.6055 17.2568L40.4066 12.7969" stroke="#32313B" stroke-width="0.7125" stroke-miterlimit="10" stroke-linejoin="round"></path><path d="M22.0898 37.875V49.7374L27.7839 45.0349V37.875H22.0898Z" fill="#32313B"></path><path d="M22.0898 17.2568L27.8912 12.7969" stroke="#32313B" stroke-width="0.7125" stroke-miterlimit="10" stroke-linejoin="round"></path><path d="M44.2796 17.2665H31.3906V5.67188H61.5905V49.4744H31.3906V37.8797H44.2796V17.2665Z" fill="#81D8B4" stroke="#32313B" stroke-width="0.7125" stroke-miterlimit="10" stroke-linejoin="round"></path><path d="M61.5938 5.49903L67.3949 1.03906" stroke="#32313B" stroke-width="0.7125" stroke-miterlimit="10" stroke-linejoin="round"></path><path d="M34.6016 17.25V37.7214L40.3821 33.4042V17.3664L34.6016 17.25Z" fill="#32313B"></path></svg>