<svg width="94" height="56" viewBox="0 0 94 56" fill="none" xmlns="http://www.w3.org/2000/svg"><path d="M42.6367 48.1094H10.1094V55.3926H36.3578L42.6367 48.1094Z" fill="#32313B" stroke="#32313B" stroke-width="0.64125" stroke-miterlimit="10"></path><path d="M33.2264 32.1562H6.64578L0.425781 39.3913V55.393H27.0065L33.2264 48.1579V32.1562Z" fill="#8173E6" stroke="#32313B" stroke-width="0.64125" stroke-miterlimit="10" stroke-linejoin="round"></path><path d="M27.0064 39.3906H0.425781V55.3924H27.0064V39.3906Z" fill="#B0A6F9" stroke="#32313B" stroke-width="0.64125" stroke-miterlimit="10" stroke-linejoin="round"></path><path d="M27.0078 39.3913L33.2277 32.1562" stroke="#32313B" stroke-width="0.64125" stroke-miterlimit="10" stroke-linejoin="round"></path><path d="M92.4411 48.1094H59.9141V55.3926H86.631L92.4411 48.1094Z" fill="#32313B" stroke="#32313B" stroke-width="0.64125" stroke-miterlimit="10"></path><path d="M83.0309 32.1562H56.4503L50.2305 39.3913V55.393H76.8111L83.0309 48.1579V32.1562Z" fill="#8173E6" stroke="#32313B" stroke-width="0.64125" stroke-miterlimit="10" stroke-linejoin="round"></path><path d="M76.8111 39.3906H50.2305V55.3924H76.8111V39.3906Z" fill="#B0A6F9" stroke="#32313B" stroke-width="0.64125" stroke-miterlimit="10" stroke-linejoin="round"></path><path d="M76.8125 39.3913L83.0324 32.1562" stroke="#32313B" stroke-width="0.64125" stroke-miterlimit="10" stroke-linejoin="round"></path><path d="M18.4951 37.9428C23.2515 37.9428 27.1073 36.9937 27.1073 35.823C27.1073 34.6522 23.2515 33.7031 18.4951 33.7031C13.7387 33.7031 9.88281 34.6522 9.88281 35.823C9.88281 36.9937 13.7387 37.9428 18.4951 37.9428Z" fill="#32313B"></path><path d="M67.5809 37.9428C72.3372 37.9428 76.193 36.9937 76.193 35.823C76.193 34.6522 72.3372 33.7031 67.5809 33.7031C62.8245 33.7031 58.9688 34.6522 58.9688 35.823C58.9688 36.9937 62.8245 37.9428 67.5809 37.9428Z" fill="#32313B"></path><path d="M70.6083 21.4145C69.0567 17.2181 66.7854 13.5192 63.8572 10.42C58.0793 4.30496 50.0937 0.9375 41.371 0.9375C32.6484 0.9375 24.6628 4.30509 18.8848 10.42C15.9566 13.5191 13.6853 17.2181 12.1339 21.4145C10.5624 25.6655 9.76562 30.3465 9.76562 35.3276C9.76562 36.4416 12.8879 37.3446 16.7391 37.3446C20.5904 37.3446 23.7127 36.4416 23.7127 35.3276C23.7127 28.9756 25.5487 23.6749 29.0225 19.9988C32.1837 16.653 36.4539 14.8846 41.3712 14.8846C46.2884 14.8846 50.5585 16.653 53.72 19.9988C57.1935 23.6749 59.0295 28.9756 59.0295 35.3276C59.0295 36.4416 62.1519 37.3446 66.0031 37.3446C69.8545 37.3446 72.9767 36.4416 72.9767 35.3276C72.9767 30.3465 72.1798 25.6655 70.6083 21.4145Z" fill="#49B889" stroke="#32313B" stroke-width="0.64125" stroke-miterlimit="10" stroke-linecap="round" stroke-linejoin="round"></path><path d="M68.9342 36.9598C68.9342 17.0246 56.5946 4.98438 41.3733 4.98438C26.1518 4.98438 13.8125 17.0246 13.8125 36.9598L13.8205 37.1613C14.7092 37.28 15.6982 37.3467 16.7413 37.3467C20.5927 37.3467 23.7149 36.4437 23.7149 35.3297C23.7149 28.9778 25.551 23.6771 29.0247 20.0009C32.186 16.6551 36.4562 14.8867 41.3734 14.8867C46.2907 14.8867 50.5607 16.6551 53.7222 20.0009C57.1958 23.6771 59.0318 28.9778 59.0318 35.3297C59.0318 36.4437 62.1542 37.3467 66.0054 37.3467C67.0501 37.3467 68.0406 37.2799 68.9304 37.1606L68.9342 36.9598Z" fill="#FBB598" stroke="#32313B" stroke-width="0.64125" stroke-miterlimit="10" stroke-linejoin="round"></path><path d="M41.3716 9.44531C28.8909 9.44531 18.7734 19.8574 18.7734 37.0972L18.8082 37.2544C21.6496 36.9996 23.7132 36.2334 23.7132 35.3278C23.7132 28.9759 25.5493 23.6752 29.0231 19.999C32.1843 16.6532 36.4545 14.8848 41.3717 14.8848C46.289 14.8848 50.559 16.6532 53.7205 19.999C57.1941 23.6752 59.0301 28.9759 59.0301 35.3278C59.0301 36.2347 61.0999 37.0016 63.9474 37.2556L63.9699 37.0973C63.9698 19.8573 53.8521 9.44531 41.3716 9.44531Z" fill="#FDB2D2" stroke="#32313B" stroke-width="0.64125" stroke-miterlimit="10" stroke-linejoin="round"></path></svg>