<svg width="89" height="49" viewBox="0 0 89 49" fill="none" xmlns="http://www.w3.org/2000/svg"><path d="M87.5022 42.8984H15.4727V47.9655H78.2894L87.5022 42.8984Z" fill="#32313B" stroke="#32313B" stroke-width="0.64125" stroke-miterlimit="10"></path><path d="M39.5982 21.8803L28.2682 0.59375H10.5179L0.78125 5.39851L12.1111 26.6851L0.78125 47.9716H18.5316L28.2682 43.1667L39.5982 21.8803Z" fill="#EB81AF" stroke="#32313B" stroke-width="0.64125" stroke-miterlimit="10" stroke-linejoin="round"></path><path d="M0.957031 5.2954L10.5931 0.40625L28.1564 0.501283L18.4728 5.3903L0.957031 5.2954Z" fill="#FDB2D2"></path><path d="M39.5982 21.8803L28.2682 0.59375H10.5179L0.78125 5.39851L12.1111 26.6851L0.78125 47.9716H18.5316L28.2682 43.1667L39.5982 21.8803Z" stroke="#32313B" stroke-width="0.64125" stroke-miterlimit="10" stroke-linejoin="round"></path><path d="M18.5316 5.39062H0.78125L12.1111 26.6772L0.78125 47.9637H18.5316L29.8614 26.6772L18.5316 5.39062Z" fill="#FDB2D2" stroke="#32313B" stroke-width="0.64125" stroke-miterlimit="10" stroke-linejoin="round"></path><path d="M18.5312 5.39851L28.2679 0.59375" stroke="#32313B" stroke-width="0.64125" stroke-miterlimit="10" stroke-linejoin="round"></path><path d="M29.8594 26.6798L39.5961 21.875" stroke="#32313B" stroke-width="0.64125" stroke-miterlimit="10" stroke-linejoin="round"></path><path d="M60.9028 21.8803L49.573 0.59375H31.8227L22.0859 5.39851L33.4158 26.6851L22.0859 47.9716H39.8362L49.573 43.1667L60.9028 21.8803Z" fill="#F0946C" stroke="#32313B" stroke-width="0.64125" stroke-miterlimit="10" stroke-linejoin="round"></path><path d="M22.3594 5.44691L31.9211 0.519419L49.4605 0.460938L39.7229 5.3883L22.3594 5.44691Z" fill="#FBB598"></path><path d="M60.9028 21.8803L49.573 0.59375H31.8227L22.0859 5.39851L33.4158 26.6851L22.0859 47.9716H39.8362L49.573 43.1667L60.9028 21.8803Z" stroke="#32313B" stroke-width="0.64125" stroke-miterlimit="10" stroke-linejoin="round"></path><path d="M39.8363 5.39844H22.0859L33.4158 26.685L22.0859 47.9715H39.8363L51.1662 26.685L39.8363 5.39844Z" fill="#FBB598" stroke="#32313B" stroke-width="0.64125" stroke-miterlimit="10" stroke-linejoin="round"></path><path d="M39.8359 5.39851L49.5727 0.59375" stroke="#32313B" stroke-width="0.64125" stroke-miterlimit="10" stroke-linejoin="round"></path><path d="M51.1641 26.6798L60.9007 21.875" stroke="#32313B" stroke-width="0.64125" stroke-miterlimit="10" stroke-linejoin="round"></path><path d="M82.2582 21.8725L70.9283 0.585938H53.1779L43.4414 5.39069L54.7711 26.6772L43.4414 47.9638H61.1917L70.9283 43.1589L82.2582 21.8725Z" fill="#EB81AF" stroke="#32313B" stroke-width="0.64125" stroke-miterlimit="10" stroke-linejoin="round"></path><path d="M43.7305 5.23102L53.1772 0.585938L70.594 0.708931L61.2267 5.28489L43.7305 5.23102Z" fill="#FDB2D2"></path><path d="M82.2582 21.8725L70.9283 0.585938H53.1779L43.4414 5.39069L54.7711 26.6772L43.4414 47.9638H61.1917L70.9283 43.1589L82.2582 21.8725Z" stroke="#32313B" stroke-width="0.64125" stroke-miterlimit="10" stroke-linejoin="round"></path><path d="M61.1917 5.39062H43.4414L54.7711 26.6772L43.4414 47.9637H61.1917L72.5216 26.6772L61.1917 5.39062Z" fill="#FDB2D2" stroke="#32313B" stroke-width="0.64125" stroke-miterlimit="10" stroke-linejoin="round"></path><path d="M61.1914 5.39069L70.928 0.585938" stroke="#32313B" stroke-width="0.64125" stroke-miterlimit="10" stroke-linejoin="round"></path><path d="M72.5234 26.6798L82.2601 21.875" stroke="#32313B" stroke-width="0.64125" stroke-miterlimit="10" stroke-linejoin="round"></path><path d="M18.6796 47.6661L29.7947 26.5476L32.7016 25.1797L33.4136 26.6806L23.2111 45.6997L18.5312 47.9672" fill="#32313B"></path><path d="M40.0545 47.6661L51.1695 26.5476L54.0766 25.1797L54.7885 26.6806L44.5861 45.6997L39.9062 47.9672" fill="#32313B"></path></svg>