<svg width="33" height="23" fill="none" xmlns="http://www.w3.org/2000/svg"><path d="M17.231 22.97l-6.77-.125c-2.192-.043-4.39.043-6.539-.407-3.27-.673-3.5-3.972-3.743-6.74A47.634 47.634 0 0 1 .604 3.987C.96 1.822 2.36.53 4.525.389c7.31-.51 14.667-.45 21.96-.211.77.021 1.545.14 2.305.276 3.748.663 3.84 4.402 4.083 7.55.242 3.18.14 6.376-.323 9.534-.372 2.615-1.083 4.808-4.084 5.02-3.76.277-7.433.5-11.203.429 0-.017-.021-.017-.032-.017zm-3.98-6.62c2.833-1.64 5.612-3.252 8.43-4.88-2.84-1.639-5.613-3.25-8.43-4.878v9.757z" fill="#fff"/></svg>